<svg width="138" height="142" viewBox="0 0 138 142" fill="none" xmlns="http://www.w3.org/2000/svg">
<path d="M0 0H90.4212C116.146 0 137 20.854 137 46.5788V142H46.5788C20.854 142 0 121.146 0 95.4212V0Z" fill="#009379"/>
<path d="M1.21409 100L6 104.786L10.7859 100L6 95.2141L1.21409 100ZM137.586 100.586C137.91 100.262 137.91 99.7376 137.586 99.4138L132.311 94.1385C131.987 93.8148 131.462 93.8148 131.138 94.1385C130.815 94.4622 130.815 94.9871 131.138 95.3108L135.828 100L131.138 104.689C130.815 105.013 130.815 105.538 131.138 105.862C131.462 106.185 131.987 106.185 132.311 105.862L137.586 100.586ZM6 100.829H137V99.1711H6V100.829Z" fill="white" fill-opacity="0.5"/>
<path d="M34.064 94L31.688 85.504H32.896L35.144 93.4H34.896L36.384 85.504H37.8L35.968 94H34.064ZM28.32 94L26.472 85.504H27.888L29.392 93.4H29.144L31.368 85.504H32.576L30.232 94H28.32ZM42.317 94.16C41.6717 94.16 41.1063 94.0587 40.621 93.856C40.141 93.6533 39.7677 93.3627 39.501 92.984C39.2343 92.6 39.101 92.1413 39.101 91.608C39.101 91.0533 39.245 90.592 39.533 90.224C39.821 89.8507 40.2263 89.56 40.749 89.352C41.2717 89.144 41.8797 89.0053 42.573 88.936C43.6183 88.8293 44.3623 88.7253 44.805 88.624C45.2477 88.5173 45.469 88.3467 45.469 88.112C45.469 88.1067 45.469 88.104 45.469 88.104C45.469 88.0987 45.469 88.0933 45.469 88.088C45.469 87.5973 45.269 87.232 44.869 86.992C44.469 86.7467 43.8903 86.624 43.133 86.624C42.3437 86.624 41.7303 86.7627 41.293 87.04C40.8557 87.312 40.637 87.7547 40.637 88.368H39.293C39.293 87.7333 39.4557 87.1947 39.781 86.752C40.1063 86.304 40.557 85.9627 41.133 85.728C41.7143 85.4933 42.3837 85.376 43.141 85.376C43.8343 85.376 44.4583 85.4827 45.013 85.696C45.573 85.904 46.0157 86.216 46.341 86.632C46.6717 87.0427 46.837 87.552 46.837 88.16C46.837 88.272 46.837 88.384 46.837 88.496C46.837 88.6027 46.837 88.712 46.837 88.824V92.4C46.837 92.5867 46.845 92.768 46.861 92.944C46.877 93.12 46.9037 93.2747 46.941 93.408C46.989 93.568 47.0423 93.6987 47.101 93.8C47.1597 93.896 47.2077 93.9627 47.245 94H45.877C45.8503 93.9733 45.8103 93.912 45.757 93.816C45.7037 93.7147 45.653 93.5973 45.605 93.464C45.5677 93.3573 45.5383 93.224 45.517 93.064C45.4957 92.8987 45.485 92.728 45.485 92.552L45.709 92.704C45.5437 92.992 45.301 93.2453 44.981 93.464C44.6663 93.6827 44.285 93.8533 43.837 93.976C43.389 94.0987 42.8823 94.16 42.317 94.16ZM42.533 92.936C43.0823 92.936 43.5783 92.8533 44.021 92.688C44.4637 92.5173 44.8157 92.2667 45.077 91.936C45.3383 91.6053 45.469 91.1947 45.469 90.704V89.016L45.773 89.528C45.4317 89.6613 45.005 89.7707 44.493 89.856C43.9863 89.936 43.4557 90.0027 42.901 90.056C42.0957 90.1307 41.4877 90.272 41.077 90.48C40.6717 90.688 40.469 91.0373 40.469 91.528C40.469 91.992 40.637 92.344 40.973 92.584C41.309 92.8187 41.829 92.936 42.533 92.936ZM52.2246 94.128C51.9633 94.128 51.7073 94.0987 51.4566 94.04C51.206 93.9813 50.9793 93.8773 50.7766 93.728C50.5793 93.5733 50.422 93.3573 50.3046 93.08C50.1873 92.7973 50.1286 92.4347 50.1286 91.992C50.1286 91.88 50.1286 91.7653 50.1286 91.648C50.1286 91.5253 50.1286 91.3973 50.1286 91.264V86.704H48.0566V85.504H49.3846C49.566 85.504 49.7073 85.4987 49.8086 85.488C49.91 85.472 49.982 85.4373 50.0246 85.384C50.0726 85.3253 50.102 85.2373 50.1126 85.12C50.1233 84.9973 50.1286 84.8293 50.1286 84.616V82.688H51.4966V85.504H54.1526V86.704H51.4966V90.824C51.4966 90.9413 51.4966 91.056 51.4966 91.168C51.4966 91.28 51.4966 91.384 51.4966 91.48C51.4966 91.9333 51.55 92.288 51.6566 92.544C51.7686 92.8 52.0166 92.928 52.4006 92.928C52.5553 92.928 52.702 92.9147 52.8406 92.888C52.9793 92.8613 53.0833 92.8347 53.1526 92.808V93.992C53.062 94.024 52.934 94.0533 52.7686 94.08C52.6086 94.112 52.4273 94.128 52.2246 94.128ZM59.6466 94.16C58.836 94.16 58.1 93.984 57.4386 93.632C56.7773 93.2747 56.252 92.7653 55.8626 92.104C55.4786 91.4427 55.2866 90.656 55.2866 89.744C55.2866 88.832 55.4786 88.0507 55.8626 87.4C56.252 86.744 56.7773 86.2427 57.4386 85.896C58.1 85.5493 58.836 85.376 59.6466 85.376C60.2653 85.376 60.8173 85.472 61.3026 85.664C61.788 85.8507 62.1986 86.1013 62.5346 86.416C62.8706 86.7307 63.1266 87.0773 63.3026 87.456C63.484 87.8293 63.5746 88.2027 63.5746 88.576C63.5746 88.5813 63.5746 88.5893 63.5746 88.6C63.5746 88.6107 63.5746 88.6213 63.5746 88.632H62.2226C62.2226 88.6053 62.22 88.576 62.2146 88.544C62.2093 88.5067 62.204 88.4693 62.1986 88.432C62.156 88.0747 62.02 87.7627 61.7906 87.496C61.5613 87.224 61.2626 87.0107 60.8946 86.856C60.5266 86.7013 60.108 86.624 59.6386 86.624C59.1106 86.624 58.62 86.7387 58.1666 86.968C57.7186 87.192 57.356 87.536 57.0786 88C56.8066 88.4587 56.6706 89.04 56.6706 89.744C56.6706 90.4427 56.8066 91.0267 57.0786 91.496C57.3506 91.9653 57.7106 92.32 58.1586 92.56C58.612 92.7947 59.1053 92.912 59.6386 92.912C60.2146 92.912 60.6893 92.8213 61.0626 92.64C61.436 92.4587 61.716 92.2187 61.9026 91.92C62.0946 91.616 62.2013 91.2907 62.2226 90.944H63.5746C63.5746 91.328 63.4893 91.712 63.3186 92.096C63.148 92.4747 62.8973 92.8213 62.5666 93.136C62.236 93.4453 61.8253 93.6933 61.3346 93.88C60.8493 94.0667 60.2866 94.16 59.6466 94.16ZM71.7808 94V90.84C71.7808 90.6907 71.7808 90.5147 71.7808 90.312C71.7808 90.104 71.7808 89.896 71.7808 89.688C71.7808 89.4747 71.7808 89.2933 71.7808 89.144C71.7808 88.328 71.6048 87.712 71.2528 87.296C70.9061 86.88 70.3541 86.672 69.5968 86.672C69.0901 86.672 68.6448 86.7707 68.2608 86.968C67.8821 87.1653 67.5861 87.4347 67.3728 87.776C67.1594 88.1173 67.0528 88.504 67.0528 88.936L66.1888 88.672C66.1888 88.064 66.3461 87.512 66.6608 87.016C66.9808 86.5147 67.4154 86.1173 67.9648 85.824C68.5194 85.5253 69.1461 85.376 69.8448 85.376C70.8634 85.376 71.6661 85.6827 72.2528 86.296C72.8448 86.9093 73.1408 87.7573 73.1408 88.84C73.1408 89.1227 73.1408 89.448 73.1408 89.816C73.1408 90.184 73.1408 90.5707 73.1408 90.976V94H71.7808ZM65.6928 94V81.496H67.0528V94H65.6928ZM86.2973 85.504L83.4493 94H81.6653L78.7533 85.504H80.1613L82.6653 93.28H82.4493L84.8893 85.504H86.2973ZM88.0853 94V85.504H89.4293V94H88.0853ZM88.7653 83.552C88.5146 83.552 88.2959 83.4827 88.1093 83.344C87.9279 83.2 87.8372 83.0053 87.8372 82.76C87.8372 82.52 87.9279 82.3307 88.1093 82.192C88.2959 82.048 88.5146 81.976 88.7653 81.976C89.0159 81.976 89.2319 82.048 89.4133 82.192C89.5946 82.3307 89.6853 82.52 89.6853 82.76C89.6853 83.0053 89.5946 83.2 89.4133 83.344C89.2319 83.4827 89.0159 83.552 88.7653 83.552ZM95.4624 94.16C94.7637 94.16 94.1237 93.992 93.5424 93.656C92.961 93.3147 92.497 92.816 92.1504 92.16C91.8037 91.4987 91.6304 90.6933 91.6304 89.744C91.6304 88.8107 91.8064 88.0187 92.1584 87.368C92.5104 86.7173 92.977 86.224 93.5584 85.888C94.1397 85.5467 94.7744 85.376 95.4624 85.376C96.1184 85.376 96.7317 85.5333 97.3024 85.848C97.8784 86.1573 98.3424 86.5893 98.6944 87.144C99.0464 87.6987 99.2224 88.3413 99.2224 89.072C99.2224 89.088 99.2224 89.104 99.2224 89.12C99.2224 89.136 99.2224 89.152 99.2224 89.168L98.2464 89.208C98.2464 89.192 98.2464 89.176 98.2464 89.16C98.2464 89.1387 98.2464 89.12 98.2464 89.104C98.2464 88.64 98.1237 88.2213 97.8784 87.848C97.6384 87.4747 97.321 87.1787 96.9264 86.96C96.5317 86.736 96.1077 86.624 95.6544 86.624C94.897 86.624 94.2704 86.88 93.7744 87.392C93.2784 87.8987 93.0304 88.6827 93.0304 89.744C93.0304 90.8 93.2784 91.5867 93.7744 92.104C94.2757 92.616 94.9024 92.872 95.6544 92.872C96.129 92.872 96.561 92.7573 96.9504 92.528C97.345 92.2987 97.6597 91.992 97.8944 91.608C98.129 91.2187 98.2464 90.784 98.2464 90.304L99.2224 90.328C99.2224 91.0533 99.0544 91.7067 98.7184 92.288C98.3824 92.864 97.929 93.32 97.3584 93.656C96.793 93.992 96.161 94.16 95.4624 94.16ZM98.2464 94V81.496H99.6144V94H98.2464ZM102.445 90.296V89.08H109.013L108.773 89.48C108.773 89.448 108.773 89.4187 108.773 89.392C108.773 89.36 108.773 89.3307 108.773 89.304C108.773 88.8133 108.669 88.3653 108.461 87.96C108.259 87.5493 107.955 87.2213 107.549 86.976C107.144 86.7307 106.643 86.608 106.045 86.608C105.443 86.608 104.912 86.736 104.453 86.992C103.995 87.248 103.637 87.6107 103.381 88.08C103.125 88.544 102.997 89.0987 102.997 89.744C102.997 90.4 103.12 90.9653 103.365 91.44C103.616 91.9147 103.971 92.28 104.429 92.536C104.888 92.792 105.432 92.92 106.061 92.92C106.509 92.92 106.899 92.8747 107.229 92.784C107.56 92.688 107.832 92.5627 108.045 92.408C108.264 92.248 108.429 92.0747 108.541 91.888C108.653 91.7013 108.72 91.5147 108.741 91.328H110.101C110.075 91.6693 109.968 92.008 109.781 92.344C109.595 92.68 109.331 92.9867 108.989 93.264C108.648 93.536 108.229 93.7547 107.733 93.92C107.237 94.0853 106.667 94.168 106.021 94.168C105.168 94.168 104.416 93.9813 103.765 93.608C103.115 93.2347 102.603 92.7173 102.229 92.056C101.861 91.3947 101.677 90.6347 101.677 89.776C101.677 88.9067 101.864 88.144 102.237 87.488C102.611 86.8267 103.125 86.3093 103.781 85.936C104.437 85.5627 105.187 85.376 106.029 85.376C106.888 85.376 107.632 85.5627 108.261 85.936C108.891 86.3093 109.376 86.8213 109.717 87.472C110.059 88.1173 110.229 88.8533 110.229 89.68C110.229 89.7653 110.227 89.8773 110.221 90.016C110.216 90.1547 110.208 90.248 110.197 90.296H102.445ZM116.373 94.152C115.52 94.152 114.765 93.9627 114.109 93.584C113.458 93.2 112.946 92.6773 112.573 92.016C112.205 91.3493 112.021 90.592 112.021 89.744C112.021 88.896 112.205 88.144 112.573 87.488C112.946 86.832 113.458 86.3173 114.109 85.944C114.765 85.5707 115.52 85.384 116.373 85.384C117.226 85.384 117.978 85.5707 118.629 85.944C119.285 86.3173 119.797 86.832 120.165 87.488C120.538 88.144 120.725 88.896 120.725 89.744C120.725 90.592 120.538 91.3493 120.165 92.016C119.797 92.6773 119.285 93.2 118.629 93.584C117.978 93.9627 117.226 94.152 116.373 94.152ZM116.373 92.904C116.96 92.904 117.477 92.7733 117.925 92.512C118.373 92.2507 118.722 91.8827 118.973 91.408C119.229 90.9333 119.357 90.3787 119.357 89.744C119.357 89.1093 119.229 88.56 118.973 88.096C118.722 87.6267 118.373 87.2667 117.925 87.016C117.477 86.76 116.96 86.632 116.373 86.632C115.792 86.632 115.274 86.76 114.821 87.016C114.373 87.2667 114.021 87.6267 113.765 88.096C113.514 88.56 113.389 89.1093 113.389 89.744C113.389 90.3787 113.514 90.9333 113.765 91.408C114.021 91.8827 114.373 92.2507 114.821 92.512C115.274 92.7733 115.792 92.904 116.373 92.904Z" fill="#FEFEFE" fill-opacity="0.5"/>
</svg>
