<svg width="137" height="121" viewBox="0 0 137 121" fill="none" xmlns="http://www.w3.org/2000/svg">
<path d="M20 35C20 15.67 35.67 0 55 0L85 0C104.33 0 120 15.67 120 35V86C120 105.33 104.33 121 85 121H55C35.67 121 20 105.33 20 86V35Z" fill="#A8DAFF"/>
<path d="M0.214093 103L5 107.786L9.78591 103L5 98.2141L0.214093 103ZM136.586 103.586C136.91 103.262 136.91 102.738 136.586 102.414L131.311 97.1385C130.987 96.8148 130.462 96.8148 130.138 97.1385C129.815 97.4622 129.815 97.9871 130.138 98.3108L134.828 103L130.138 107.689C129.815 108.013 129.815 108.538 130.138 108.862C130.462 109.185 130.987 109.185 131.311 108.862L136.586 103.586ZM5 103.829H136V102.171H5V103.829Z" fill="#2D2D2D" fill-opacity="0.7"/>
<path d="M32.304 97V92.928C32.304 92.6827 32.304 92.4827 32.304 92.328C32.304 92.168 32.304 92.016 32.304 91.872C32.304 91.4293 32.2293 91.0427 32.08 90.712C31.9307 90.3813 31.696 90.1253 31.376 89.944C31.056 89.7627 30.6373 89.672 30.12 89.672C29.6667 89.672 29.2453 89.7893 28.856 90.024C28.472 90.2533 28.1627 90.5653 27.928 90.96C27.6987 91.3493 27.584 91.7867 27.584 92.272L26.808 91.976C26.808 91.3093 26.9707 90.704 27.296 90.16C27.6267 89.616 28.064 89.184 28.608 88.864C29.1573 88.5387 29.7547 88.376 30.4 88.376C31.056 88.376 31.6293 88.5013 32.12 88.752C32.6107 89.0027 32.9893 89.3627 33.256 89.832C33.528 90.296 33.664 90.856 33.664 91.512C33.664 91.7467 33.664 92.0027 33.664 92.28C33.664 92.5573 33.664 92.816 33.664 93.056V97H32.304ZM26.224 97V88.504H27.584V97H26.224ZM36.4765 93.296V92.08H43.0445L42.8045 92.48C42.8045 92.448 42.8045 92.4187 42.8045 92.392C42.8045 92.36 42.8045 92.3307 42.8045 92.304C42.8045 91.8133 42.7005 91.3653 42.4925 90.96C42.2898 90.5493 41.9858 90.2213 41.5805 89.976C41.1752 89.7307 40.6738 89.608 40.0765 89.608C39.4738 89.608 38.9432 89.736 38.4845 89.992C38.0258 90.248 37.6685 90.6107 37.4125 91.08C37.1565 91.544 37.0285 92.0987 37.0285 92.744C37.0285 93.4 37.1512 93.9653 37.3965 94.44C37.6472 94.9147 38.0018 95.28 38.4605 95.536C38.9192 95.792 39.4632 95.92 40.0925 95.92C40.5405 95.92 40.9298 95.8747 41.2605 95.784C41.5912 95.688 41.8632 95.5627 42.0765 95.408C42.2952 95.248 42.4605 95.0747 42.5725 94.888C42.6845 94.7013 42.7512 94.5147 42.7725 94.328H44.1325C44.1058 94.6693 43.9992 95.008 43.8125 95.344C43.6258 95.68 43.3618 95.9867 43.0205 96.264C42.6792 96.536 42.2605 96.7547 41.7645 96.92C41.2685 97.0853 40.6978 97.168 40.0525 97.168C39.1992 97.168 38.4472 96.9813 37.7965 96.608C37.1458 96.2347 36.6338 95.7173 36.2605 95.056C35.8925 94.3947 35.7085 93.6347 35.7085 92.776C35.7085 91.9067 35.8952 91.144 36.2685 90.488C36.6418 89.8267 37.1565 89.3093 37.8125 88.936C38.4685 88.5627 39.2178 88.376 40.0605 88.376C40.9192 88.376 41.6632 88.5627 42.2925 88.936C42.9218 89.3093 43.4072 89.8213 43.7485 90.472C44.0898 91.1173 44.2605 91.8533 44.2605 92.68C44.2605 92.7653 44.2578 92.8773 44.2525 93.016C44.2472 93.1547 44.2392 93.248 44.2285 93.296H36.4765ZM48.4818 92.48L48.4658 93.128L45.1618 88.504H46.6497L49.4098 92.32L48.5938 92.296L51.2578 88.504H52.7218L49.5218 92.92L49.6098 92.528L52.7858 97H51.2898L48.5458 93.24L49.4418 93.032L46.5138 97H45.0498L48.4818 92.48ZM57.8653 97.128C57.6039 97.128 57.3479 97.0987 57.0973 97.04C56.8466 96.9813 56.6199 96.8773 56.4173 96.728C56.2199 96.5733 56.0626 96.3573 55.9453 96.08C55.8279 95.7973 55.7693 95.4347 55.7693 94.992C55.7693 94.88 55.7693 94.7653 55.7693 94.648C55.7693 94.5253 55.7693 94.3973 55.7693 94.264V89.704H53.6973V88.504H55.0253C55.2066 88.504 55.3479 88.4987 55.4493 88.488C55.5506 88.472 55.6226 88.4373 55.6653 88.384C55.7133 88.3253 55.7426 88.2373 55.7533 88.12C55.7639 87.9973 55.7693 87.8293 55.7693 87.616V85.688H57.1373V88.504H59.7933V89.704H57.1373V93.824C57.1373 93.9413 57.1373 94.056 57.1373 94.168C57.1373 94.28 57.1373 94.384 57.1373 94.48C57.1373 94.9333 57.1906 95.288 57.2973 95.544C57.4093 95.8 57.6573 95.928 58.0413 95.928C58.1959 95.928 58.3426 95.9147 58.4813 95.888C58.6199 95.8613 58.7239 95.8347 58.7933 95.808V96.992C58.7026 97.024 58.5746 97.0533 58.4093 97.08C58.2493 97.112 58.0679 97.128 57.8653 97.128ZM68.5045 97.16C67.8592 97.16 67.2938 97.0587 66.8085 96.856C66.3285 96.6533 65.9552 96.3627 65.6885 95.984C65.4218 95.6 65.2885 95.1413 65.2885 94.608C65.2885 94.0533 65.4325 93.592 65.7205 93.224C66.0085 92.8507 66.4138 92.56 66.9365 92.352C67.4592 92.144 68.0672 92.0053 68.7605 91.936C69.8058 91.8293 70.5498 91.7253 70.9925 91.624C71.4352 91.5173 71.6565 91.3467 71.6565 91.112C71.6565 91.1067 71.6565 91.104 71.6565 91.104C71.6565 91.0987 71.6565 91.0933 71.6565 91.088C71.6565 90.5973 71.4565 90.232 71.0565 89.992C70.6565 89.7467 70.0778 89.624 69.3205 89.624C68.5312 89.624 67.9178 89.7627 67.4805 90.04C67.0432 90.312 66.8245 90.7547 66.8245 91.368H65.4805C65.4805 90.7333 65.6432 90.1947 65.9685 89.752C66.2938 89.304 66.7445 88.9627 67.3205 88.728C67.9018 88.4933 68.5712 88.376 69.3285 88.376C70.0218 88.376 70.6458 88.4827 71.2005 88.696C71.7605 88.904 72.2032 89.216 72.5285 89.632C72.8592 90.0427 73.0245 90.552 73.0245 91.16C73.0245 91.272 73.0245 91.384 73.0245 91.496C73.0245 91.6027 73.0245 91.712 73.0245 91.824V95.4C73.0245 95.5867 73.0325 95.768 73.0485 95.944C73.0645 96.12 73.0912 96.2747 73.1285 96.408C73.1765 96.568 73.2298 96.6987 73.2885 96.8C73.3472 96.896 73.3952 96.9627 73.4325 97H72.0645C72.0378 96.9733 71.9978 96.912 71.9445 96.816C71.8912 96.7147 71.8405 96.5973 71.7925 96.464C71.7552 96.3573 71.7258 96.224 71.7045 96.064C71.6832 95.8987 71.6725 95.728 71.6725 95.552L71.8965 95.704C71.7312 95.992 71.4885 96.2453 71.1685 96.464C70.8538 96.6827 70.4725 96.8533 70.0245 96.976C69.5765 97.0987 69.0698 97.16 68.5045 97.16ZM68.7205 95.936C69.2698 95.936 69.7658 95.8533 70.2085 95.688C70.6512 95.5173 71.0032 95.2667 71.2645 94.936C71.5258 94.6053 71.6565 94.1947 71.6565 93.704V92.016L71.9605 92.528C71.6192 92.6613 71.1925 92.7707 70.6805 92.856C70.1738 92.936 69.6432 93.0027 69.0885 93.056C68.2832 93.1307 67.6752 93.272 67.2645 93.48C66.8592 93.688 66.6565 94.0373 66.6565 94.528C66.6565 94.992 66.8245 95.344 67.1605 95.584C67.4965 95.8187 68.0165 95.936 68.7205 95.936ZM75.2865 97V88.504H76.6465V91.112L76.1985 90.952C76.2305 90.6373 76.3105 90.328 76.4385 90.024C76.5665 89.7147 76.7425 89.4373 76.9665 89.192C77.1958 88.9413 77.4812 88.744 77.8225 88.6C78.1638 88.4507 78.5638 88.376 79.0225 88.376C79.3638 88.376 79.6412 88.4053 79.8545 88.464C80.0732 88.5173 80.2092 88.56 80.2625 88.592L79.9105 89.928C79.8572 89.8907 79.7478 89.8427 79.5825 89.784C79.4225 89.7253 79.1932 89.696 78.8945 89.696C78.4518 89.696 78.0838 89.776 77.7905 89.936C77.5025 90.096 77.2732 90.3093 77.1025 90.576C76.9372 90.8373 76.8198 91.1227 76.7505 91.432C76.6812 91.7413 76.6465 92.048 76.6465 92.352V97H75.2865ZM85.084 97.128C84.8227 97.128 84.5667 97.0987 84.316 97.04C84.0653 96.9813 83.8387 96.8773 83.636 96.728C83.4387 96.5733 83.2813 96.3573 83.164 96.08C83.0467 95.7973 82.988 95.4347 82.988 94.992C82.988 94.88 82.988 94.7653 82.988 94.648C82.988 94.5253 82.988 94.3973 82.988 94.264V89.704H80.916V88.504H82.244C82.4253 88.504 82.5667 88.4987 82.668 88.488C82.7693 88.472 82.8413 88.4373 82.884 88.384C82.932 88.3253 82.9613 88.2373 82.972 88.12C82.9827 87.9973 82.988 87.8293 82.988 87.616V85.688H84.356V88.504H87.012V89.704H84.356V93.824C84.356 93.9413 84.356 94.056 84.356 94.168C84.356 94.28 84.356 94.384 84.356 94.48C84.356 94.9333 84.4093 95.288 84.516 95.544C84.628 95.8 84.876 95.928 85.26 95.928C85.4147 95.928 85.5613 95.9147 85.7 95.888C85.8387 95.8613 85.9427 95.8347 86.012 95.808V96.992C85.9213 97.024 85.7933 97.0533 85.628 97.08C85.468 97.112 85.2867 97.128 85.084 97.128ZM88.8353 97V88.504H90.1793V97H88.8353ZM89.5153 86.552C89.2646 86.552 89.0459 86.4827 88.8593 86.344C88.6779 86.2 88.5872 86.0053 88.5872 85.76C88.5872 85.52 88.6779 85.3307 88.8593 85.192C89.0459 85.048 89.2646 84.976 89.5153 84.976C89.7659 84.976 89.9819 85.048 90.1633 85.192C90.3446 85.3307 90.4353 85.52 90.4353 85.76C90.4353 86.0053 90.3446 86.2 90.1633 86.344C89.9819 86.4827 89.7659 86.552 89.5153 86.552ZM96.7404 97.16C95.9297 97.16 95.1937 96.984 94.5324 96.632C93.871 96.2747 93.3457 95.7653 92.9564 95.104C92.5724 94.4427 92.3804 93.656 92.3804 92.744C92.3804 91.832 92.5724 91.0507 92.9564 90.4C93.3457 89.744 93.871 89.2427 94.5324 88.896C95.1937 88.5493 95.9297 88.376 96.7404 88.376C97.359 88.376 97.911 88.472 98.3964 88.664C98.8817 88.8507 99.2924 89.1013 99.6284 89.416C99.9644 89.7307 100.22 90.0773 100.396 90.456C100.578 90.8293 100.668 91.2027 100.668 91.576C100.668 91.5813 100.668 91.5893 100.668 91.6C100.668 91.6107 100.668 91.6213 100.668 91.632H99.3164C99.3164 91.6053 99.3137 91.576 99.3084 91.544C99.303 91.5067 99.2977 91.4693 99.2924 91.432C99.2497 91.0747 99.1137 90.7627 98.8844 90.496C98.655 90.224 98.3564 90.0107 97.9884 89.856C97.6204 89.7013 97.2017 89.624 96.7324 89.624C96.2044 89.624 95.7137 89.7387 95.2604 89.968C94.8124 90.192 94.4497 90.536 94.1724 91C93.9004 91.4587 93.7644 92.04 93.7644 92.744C93.7644 93.4427 93.9004 94.0267 94.1724 94.496C94.4444 94.9653 94.8044 95.32 95.2524 95.56C95.7057 95.7947 96.199 95.912 96.7324 95.912C97.3084 95.912 97.783 95.8213 98.1564 95.64C98.5297 95.4587 98.8097 95.2187 98.9964 94.92C99.1884 94.616 99.295 94.2907 99.3164 93.944H100.668C100.668 94.328 100.583 94.712 100.412 95.096C100.242 95.4747 99.991 95.8213 99.6604 96.136C99.3297 96.4453 98.919 96.6933 98.4284 96.88C97.943 97.0667 97.3804 97.16 96.7404 97.16ZM104.251 84.496V97H102.907V84.496H104.251ZM107.18 93.296V92.08H113.748L113.508 92.48C113.508 92.448 113.508 92.4187 113.508 92.392C113.508 92.36 113.508 92.3307 113.508 92.304C113.508 91.8133 113.404 91.3653 113.196 90.96C112.993 90.5493 112.689 90.2213 112.284 89.976C111.878 89.7307 111.377 89.608 110.78 89.608C110.177 89.608 109.646 89.736 109.188 89.992C108.729 90.248 108.372 90.6107 108.116 91.08C107.86 91.544 107.732 92.0987 107.732 92.744C107.732 93.4 107.854 93.9653 108.1 94.44C108.35 94.9147 108.705 95.28 109.164 95.536C109.622 95.792 110.166 95.92 110.796 95.92C111.244 95.92 111.633 95.8747 111.964 95.784C112.294 95.688 112.566 95.5627 112.78 95.408C112.998 95.248 113.164 95.0747 113.276 94.888C113.388 94.7013 113.454 94.5147 113.476 94.328H114.836C114.809 94.6693 114.702 95.008 114.516 95.344C114.329 95.68 114.065 95.9867 113.724 96.264C113.382 96.536 112.964 96.7547 112.468 96.92C111.972 97.0853 111.401 97.168 110.756 97.168C109.902 97.168 109.15 96.9813 108.5 96.608C107.849 96.2347 107.337 95.7173 106.964 95.056C106.596 94.3947 106.412 93.6347 106.412 92.776C106.412 91.9067 106.598 91.144 106.972 90.488C107.345 89.8267 107.86 89.3093 108.516 88.936C109.172 88.5627 109.921 88.376 110.764 88.376C111.622 88.376 112.366 88.5627 112.996 88.936C113.625 89.3093 114.11 89.8213 114.452 90.472C114.793 91.1173 114.964 91.8533 114.964 92.68C114.964 92.7653 114.961 92.8773 114.956 93.016C114.95 93.1547 114.942 93.248 114.932 93.296H107.18Z" fill="#2D2D2D" fill-opacity="0.7"/>
</svg>
